<svg width="129" height="67" viewBox="0 0 129 67" fill="none" xmlns="http://www.w3.org/2000/svg">
<path d="M14.2379 56.1464C6.6505 56.1464 1.73228 52.5133 1.73228 46.8784C1.73228 41.1693 6.50221 37.4868 13.8425 37.4868C20.5649 37.4868 25.1371 40.329 25.4336 44.4811H19.2055C18.8843 43.3936 16.8329 42.405 13.8919 42.405C10.0858 42.405 7.8368 44.2834 7.8368 46.8784C7.8368 49.6712 10.3577 51.2282 14.5839 51.2282C16.6105 51.2282 18.8595 50.9563 20.7626 50.2149V49.3499H13.3976V45.7415H25.4336V53.4031C22.715 55.1825 18.3405 56.1464 14.2379 56.1464ZM27.6002 55.6521V37.907H45.7408V42.2815H33.4082V44.7776H45.2465V48.7567H33.4082V51.2776H45.7408V55.6521H27.6002ZM47.9348 55.6521V37.907H56.5355L65.6058 50.0666V37.907H71.4137V55.6521H62.813L53.7428 43.4678V55.6521H47.9348ZM74.3032 55.6521V37.907H80.1112V55.6521H74.3032ZM93.0808 56.1464C85.4687 56.1464 82.2805 52.9335 82.2805 46.9773V37.907H88.0884V46.7795C88.0884 49.0039 89.077 51.2529 93.0808 51.2529C97.0846 51.2529 98.0484 48.9791 98.0484 46.7795V37.907H103.881V46.9773C103.881 52.9335 100.668 56.1464 93.0808 56.1464ZM116.804 56.1464C109.662 56.1464 105.559 54.4411 105.337 49.7947H111.367C111.367 51.0799 112.702 51.9449 116.557 51.9449C120.487 51.9449 121.228 51.4012 121.228 50.462C121.228 49.3746 120.561 49.1521 116.26 48.8803L115.395 48.8309C108.599 48.4354 105.608 46.7548 105.608 42.9488C105.608 39.3157 109.489 37.4868 115.593 37.4868C122.563 37.4868 126.295 39.6123 126.517 43.5419H120.487C120.487 42.1826 118.88 41.6883 115.544 41.6883C112.405 41.6883 111.639 42.1826 111.639 42.9488C111.639 43.8632 112.306 44.2092 116.285 44.4811L117.298 44.5552C123.354 45.0248 127.258 45.6674 127.258 50.2396C127.258 54.7129 123.354 56.1464 116.804 56.1464Z" fill="black"/>
<mask id="path-2-outside-1_75_2280" maskUnits="userSpaceOnUse" x="16.9783" y="0" width="95" height="49" fill="black">
<rect fill="white" x="16.9783" width="95" height="49"/>
<path d="M34.7103 30.9805C32.1192 33.293 29.0265 34.4493 25.4323 34.4493C23.259 34.4493 21.7057 33.9896 20.7723 33.0701C20.243 32.5686 19.9783 31.684 19.9783 30.4163C19.9783 28.4659 21.4619 27.2052 24.4292 26.634C25.3626 26.4529 26.4841 26.3623 27.7936 26.3623C29.1031 26.3623 30.8932 26.6061 33.164 27.0937C34.376 25.7424 35.8178 23.7572 37.4896 21.1382C39.1752 18.5052 40.5056 16.4783 41.4808 15.0573C42.456 13.6363 43.5635 12.1875 44.8034 10.7108C46.0432 9.2202 47.3388 7.87586 48.6901 6.67779C51.4345 4.22593 54.1511 3 56.8398 3C58.0378 3 58.9015 3.30648 59.4309 3.91945C59.9603 4.51848 60.225 5.23593 60.225 6.07179C60.225 6.89372 59.8419 7.85496 59.0757 8.95551C58.3234 10.0561 57.4458 11.0312 56.4427 11.881C55.4536 12.7308 54.4715 13.4552 53.4963 14.0543C52.5351 14.6394 51.7758 14.9319 51.2186 14.9319C50.6613 14.9319 50.1807 14.6951 49.7767 14.2214C49.3727 13.7478 49.1707 13.295 49.1707 12.8632C49.1707 12.4174 49.2265 12.1109 49.3379 11.9437C49.4633 11.7626 49.5887 11.6721 49.714 11.6721C49.8394 11.6721 49.916 11.7487 49.9439 11.9019C50.3897 11.7626 51.1002 11.3308 52.0753 10.6063C53.0645 9.86799 53.963 9.10179 54.771 8.30772C55.579 7.51365 55.983 7.0191 55.983 6.82407C55.983 6.6151 55.8576 6.51062 55.6069 6.51062C55.37 6.51062 55.0427 6.5942 54.6247 6.76138C54.2068 6.92855 53.6496 7.27682 52.953 7.8062C52.2565 8.32165 51.5042 8.99034 50.6962 9.81227C48.7458 11.7626 46.5726 14.5279 44.1765 18.1082C43.6192 18.9162 42.8321 20.0934 41.8151 21.6397C39.7394 24.7742 38.2558 26.9196 37.3642 28.0758C44.5108 29.9565 49.6165 30.8969 52.6813 30.8969C54.1023 30.8969 55.0984 30.7158 55.6696 30.3536C55.8785 30.2282 56.0178 30.1655 56.0875 30.1655C56.1571 30.1655 56.192 30.2212 56.192 30.3327C56.192 30.4441 56.1293 30.6113 56.0039 30.8342C55.8785 31.0571 55.5651 31.5307 55.0636 32.2551C54.576 32.9796 54.2138 33.4114 53.9769 33.5507C53.2943 33.9547 52.1311 34.1567 50.4872 34.1567C48.8573 34.1567 47.297 34.0383 45.8064 33.8015C44.3297 33.5647 43.1386 33.3348 42.2331 33.1119C41.3276 32.8751 39.9832 32.4989 38.2 31.9835C36.4308 31.468 35.2676 31.1337 34.7103 30.9805ZM27.0831 29.7058C25.2581 29.7058 24.3456 29.9217 24.3456 30.3536C24.3456 30.5207 24.4989 30.667 24.8054 30.7924C25.1258 30.9178 25.5019 30.9805 25.9338 30.9805C27.2851 30.9805 28.5876 30.6252 29.8414 29.9147C28.7687 29.7754 27.8493 29.7058 27.0831 29.7058Z"/>
<path d="M60.7273 40.5302C60.6577 40.5998 60.4418 40.9481 60.0796 41.575C59.7313 42.2158 59.3551 42.8567 58.9511 43.4975C58.5471 44.1522 58.0456 44.7722 57.4466 45.3573C56.8615 45.9424 56.3669 46.2558 55.9629 46.2976C55.5729 46.3533 55.3221 46.3812 55.2107 46.3812C53.929 46.3812 53.2882 45.7334 53.2882 44.4378C53.2882 42.9193 54.0753 41.1431 55.6495 39.1092C56.2485 38.343 57.0008 37.5141 57.9063 36.6225C58.8118 35.7449 59.3064 35.2434 59.39 35.118C59.4736 35.0065 60.5184 33.0562 62.5245 29.2669C61.1871 30.7297 59.9472 31.9208 58.8049 32.8403C57.6625 33.7458 56.562 34.2542 55.5032 34.3657H55.3569C54.8136 34.3657 54.2773 34.1846 53.7479 33.8224C53.2185 33.4741 52.9538 32.8542 52.9538 31.9626C52.9538 30.6391 53.3091 29.3575 54.0196 28.1176C54.2703 27.6858 54.7022 26.9544 55.3151 25.9235C55.942 24.8926 56.5202 23.8965 57.0496 22.9353C57.5511 22.1691 58.0665 21.2775 58.5959 20.2605C59.1253 19.2436 59.5293 18.5192 59.8079 18.0873C60.0865 17.6415 60.3512 17.4186 60.602 17.4186C60.8527 17.4186 61.1731 17.5788 61.5632 17.8992C61.9672 18.2057 62.1692 18.5749 62.1692 19.0067C62.1692 19.4386 61.2567 21.3123 59.4318 24.6279C57.6068 27.9435 56.6943 29.8311 56.6943 30.2909C56.6943 30.4023 56.75 30.458 56.8615 30.458C57.2376 30.458 58.0665 29.9287 59.3482 28.8699C60.6438 27.7972 62.0717 26.425 63.632 24.7533C65.3733 22.9005 66.7386 21.2078 67.7277 19.6754C67.8531 19.4804 67.9506 19.3341 68.0202 19.2366C68.1038 19.1252 68.2013 18.9858 68.3128 18.8187C68.4382 18.6376 68.5357 18.4983 68.6053 18.4007C68.6889 18.3032 68.7795 18.1918 68.877 18.0664C68.9884 17.9271 69.086 17.8226 69.1695 17.753C69.2531 17.6833 69.3437 17.6136 69.4412 17.544C69.5944 17.4047 69.7616 17.335 69.9427 17.335C70.1378 17.335 70.4233 17.3768 70.7995 17.4604C71.1895 17.544 71.4194 17.6345 71.4891 17.7321C71.5727 17.8296 71.6562 17.9201 71.7398 18.0037C71.8791 18.157 71.9488 18.3032 71.9488 18.4425C71.9488 18.5679 71.8931 18.7421 71.7816 18.965C71.6702 19.1739 71.0224 20.2745 69.8382 22.2666C66.3555 28.1455 63.9593 32.4363 62.6498 35.1389C64.7673 33.3557 67.7486 30.7158 71.5935 27.2191C71.7468 27.0937 71.9 27.031 72.0533 27.031C72.4851 27.031 72.7011 27.6927 72.7011 29.0162C72.7011 29.4063 72.6314 29.664 72.4921 29.7894C68.3267 32.9935 64.4051 36.5738 60.7273 40.5302Z"/>
<path d="M77.0902 22.2039C80.3779 18.4704 83.178 16.6036 85.4906 16.6036C86.0618 16.6036 86.5284 16.7778 86.8906 17.1261C87.2668 17.4604 87.4549 17.8992 87.4549 18.4425C87.4549 18.9858 87.0648 19.8983 86.2846 21.18C85.5184 22.4477 84.808 23.5204 84.1532 24.3981C83.8049 24.8438 83.4079 25.0667 82.9621 25.0667C82.5302 25.0667 82.1889 24.9065 81.9382 24.5861C81.7013 24.2657 81.5829 23.8896 81.5829 23.4577C81.5829 22.4965 82.0984 21.4098 83.1293 20.1978L83.0875 20.1561C82.6278 20.1978 81.4854 21.1034 79.6604 22.8726C77.8494 24.6418 76.3031 26.23 75.0214 27.637C73.7537 29.0301 72.3745 30.7297 70.8839 32.7358C70.452 33.3348 70.0829 33.6343 69.7764 33.6343C69.4838 33.6343 69.0938 33.5438 68.6062 33.3627C68.1047 33.1676 67.8051 33.0283 67.7076 32.9447C67.5962 32.8611 67.5405 32.7218 67.5405 32.5268C67.5405 32.3318 67.5962 32.1089 67.7076 31.8581C67.8191 31.5934 68.028 31.2243 68.3345 30.7506C68.6271 30.2769 69.0729 29.5107 69.6719 28.452C70.2849 27.3932 71.2322 25.7912 72.5138 23.6458C73.7955 21.5004 74.5617 20.2048 74.8124 19.759C75.3418 18.8396 75.7737 18.1709 76.108 17.753C76.7349 16.9589 77.7937 16.5619 79.2843 16.5619C79.6187 16.5619 79.7858 16.7708 79.7858 17.1887C79.7858 17.8435 79.1798 19.0764 77.9678 20.8874L77.0902 22.2039Z"/>
<path d="M97.9666 10.6481C97.9666 11.4422 97.5975 12.2432 96.8591 13.0512C96.1208 13.8453 95.3476 14.2423 94.5396 14.2423C93.7455 14.2423 93.3485 13.8244 93.3485 12.9885C93.3485 12.1527 93.6968 11.3586 94.3933 10.6063C95.1038 9.84013 95.884 9.45703 96.7337 9.45703C97.1099 9.45703 97.4094 9.56151 97.6323 9.77048C97.8552 9.97944 97.9666 10.272 97.9666 10.6481ZM94.5814 28.8908C94.5814 29.3087 94.5396 29.6083 94.456 29.7894C93.7734 31.1825 92.6868 32.3109 91.1962 33.1746C89.7055 34.0244 88.41 34.4493 87.3094 34.4493C86.2089 34.4493 85.2615 34.0801 84.4675 33.3418C83.6734 32.6034 83.2764 31.8511 83.2764 31.0849C83.2764 30.3187 83.6595 29.2043 84.4257 27.7415C85.1919 26.2787 85.9581 24.9274 86.7243 23.6876C87.4905 22.4477 87.8736 21.779 87.8736 21.6815C87.8736 21.5701 87.7273 21.3611 87.4348 21.0546C87.1562 20.7481 87.0169 20.5252 87.0169 20.3859C87.0169 20.2327 87.3024 19.8496 87.8736 19.2366C88.4587 18.6097 89.1622 17.9967 89.9842 17.3977C90.82 16.7847 91.4539 16.4783 91.8858 16.4783C92.3315 16.4783 92.7286 16.6733 93.0769 17.0634C93.4251 17.4534 93.5993 17.8087 93.5993 18.1291C93.5993 18.4495 91.9415 21.4656 88.6259 27.1773C88.5841 27.2609 88.4657 27.4489 88.2707 27.7415C88.0895 28.0201 87.9433 28.2569 87.8318 28.452C87.7343 28.6331 87.6159 28.856 87.4766 29.1207C87.198 29.6779 87.0587 30.1446 87.0587 30.5207C87.0587 30.9944 87.3791 31.2312 88.0199 31.2312C88.6607 31.2312 89.3224 31.0153 90.0051 30.5834C90.7016 30.1376 91.3006 29.65 91.8022 29.1207C93.1117 27.7136 93.857 27.0101 94.0381 27.0101C94.4003 27.0101 94.5814 27.637 94.5814 28.8908Z"/>
<path d="M105.783 28.9535C106.507 28.4938 106.974 28.1803 107.183 28.0132C107.392 27.832 107.636 27.6231 107.914 27.3863C108.193 27.1494 108.423 27.031 108.604 27.031C108.882 27.031 109.022 27.3514 109.022 27.9923C109.022 28.6192 108.708 29.3018 108.081 30.0401C107.468 30.7645 106.702 31.3845 105.783 31.8999C104.863 32.4014 103.881 32.8403 102.836 33.2164C100.761 33.9826 98.9914 34.3657 97.5287 34.3657C96.0798 34.3657 94.7703 33.892 93.6001 32.9447C92.4299 31.9835 91.8448 30.7367 91.8448 29.2043C91.8448 27.6579 92.2279 26.1185 92.9941 24.5861C93.7603 23.0398 94.7425 21.6885 95.9405 20.5322C97.1525 19.362 98.5526 18.4147 100.141 17.6903C101.743 16.9659 103.324 16.6036 104.884 16.6036C105.637 16.6036 106.312 16.8196 106.911 17.2514C107.51 17.6833 107.81 18.2754 107.81 19.0276C107.81 19.7799 107.434 20.6854 106.681 21.7442C105.943 22.789 105.191 23.3114 104.425 23.3114C103.533 23.3114 103.087 22.8865 103.087 22.0367C103.087 21.8138 103.296 21.4168 103.714 20.8456C104.132 20.2745 104.341 19.8914 104.341 19.6963C104.341 19.4874 104.264 19.3829 104.111 19.3829C103.345 19.3829 102.523 19.6476 101.645 20.177C100.768 20.7063 99.9666 21.2636 99.2422 21.8487C98.5317 22.4338 97.856 23.0885 97.2152 23.8129C95.8221 25.3872 95.1256 27.024 95.1256 28.7236C95.1256 29.4063 95.3415 29.9983 95.7733 30.4998C96.2191 30.9874 96.9575 31.2312 97.9884 31.2312C99.0332 31.2312 100.078 31.1128 101.123 30.876C102.168 30.6252 103.024 30.3605 103.693 30.0819C104.376 29.7894 105.072 29.4132 105.783 28.9535Z"/>
</mask>
<path d="M34.7103 30.9805C32.1192 33.293 29.0265 34.4493 25.4323 34.4493C23.259 34.4493 21.7057 33.9896 20.7723 33.0701C20.243 32.5686 19.9783 31.684 19.9783 30.4163C19.9783 28.4659 21.4619 27.2052 24.4292 26.634C25.3626 26.4529 26.4841 26.3623 27.7936 26.3623C29.1031 26.3623 30.8932 26.6061 33.164 27.0937C34.376 25.7424 35.8178 23.7572 37.4896 21.1382C39.1752 18.5052 40.5056 16.4783 41.4808 15.0573C42.456 13.6363 43.5635 12.1875 44.8034 10.7108C46.0432 9.2202 47.3388 7.87586 48.6901 6.67779C51.4345 4.22593 54.1511 3 56.8398 3C58.0378 3 58.9015 3.30648 59.4309 3.91945C59.9603 4.51848 60.225 5.23593 60.225 6.07179C60.225 6.89372 59.8419 7.85496 59.0757 8.95551C58.3234 10.0561 57.4458 11.0312 56.4427 11.881C55.4536 12.7308 54.4715 13.4552 53.4963 14.0543C52.5351 14.6394 51.7758 14.9319 51.2186 14.9319C50.6613 14.9319 50.1807 14.6951 49.7767 14.2214C49.3727 13.7478 49.1707 13.295 49.1707 12.8632C49.1707 12.4174 49.2265 12.1109 49.3379 11.9437C49.4633 11.7626 49.5887 11.6721 49.714 11.6721C49.8394 11.6721 49.916 11.7487 49.9439 11.9019C50.3897 11.7626 51.1002 11.3308 52.0753 10.6063C53.0645 9.86799 53.963 9.10179 54.771 8.30772C55.579 7.51365 55.983 7.0191 55.983 6.82407C55.983 6.6151 55.8576 6.51062 55.6069 6.51062C55.37 6.51062 55.0427 6.5942 54.6247 6.76138C54.2068 6.92855 53.6496 7.27682 52.953 7.8062C52.2565 8.32165 51.5042 8.99034 50.6962 9.81227C48.7458 11.7626 46.5726 14.5279 44.1765 18.1082C43.6192 18.9162 42.8321 20.0934 41.8151 21.6397C39.7394 24.7742 38.2558 26.9196 37.3642 28.0758C44.5108 29.9565 49.6165 30.8969 52.6813 30.8969C54.1023 30.8969 55.0984 30.7158 55.6696 30.3536C55.8785 30.2282 56.0178 30.1655 56.0875 30.1655C56.1571 30.1655 56.192 30.2212 56.192 30.3327C56.192 30.4441 56.1293 30.6113 56.0039 30.8342C55.8785 31.0571 55.5651 31.5307 55.0636 32.2551C54.576 32.9796 54.2138 33.4114 53.9769 33.5507C53.2943 33.9547 52.1311 34.1567 50.4872 34.1567C48.8573 34.1567 47.297 34.0383 45.8064 33.8015C44.3297 33.5647 43.1386 33.3348 42.2331 33.1119C41.3276 32.8751 39.9832 32.4989 38.2 31.9835C36.4308 31.468 35.2676 31.1337 34.7103 30.9805ZM27.0831 29.7058C25.2581 29.7058 24.3456 29.9217 24.3456 30.3536C24.3456 30.5207 24.4989 30.667 24.8054 30.7924C25.1258 30.9178 25.5019 30.9805 25.9338 30.9805C27.2851 30.9805 28.5876 30.6252 29.8414 29.9147C28.7687 29.7754 27.8493 29.7058 27.0831 29.7058Z" fill="white"/>
<path d="M60.7273 40.5302C60.6577 40.5998 60.4418 40.9481 60.0796 41.575C59.7313 42.2158 59.3551 42.8567 58.9511 43.4975C58.5471 44.1522 58.0456 44.7722 57.4466 45.3573C56.8615 45.9424 56.3669 46.2558 55.9629 46.2976C55.5729 46.3533 55.3221 46.3812 55.2107 46.3812C53.929 46.3812 53.2882 45.7334 53.2882 44.4378C53.2882 42.9193 54.0753 41.1431 55.6495 39.1092C56.2485 38.343 57.0008 37.5141 57.9063 36.6225C58.8118 35.7449 59.3064 35.2434 59.39 35.118C59.4736 35.0065 60.5184 33.0562 62.5245 29.2669C61.1871 30.7297 59.9472 31.9208 58.8049 32.8403C57.6625 33.7458 56.562 34.2542 55.5032 34.3657H55.3569C54.8136 34.3657 54.2773 34.1846 53.7479 33.8224C53.2185 33.4741 52.9538 32.8542 52.9538 31.9626C52.9538 30.6391 53.3091 29.3575 54.0196 28.1176C54.2703 27.6858 54.7022 26.9544 55.3151 25.9235C55.942 24.8926 56.5202 23.8965 57.0496 22.9353C57.5511 22.1691 58.0665 21.2775 58.5959 20.2605C59.1253 19.2436 59.5293 18.5192 59.8079 18.0873C60.0865 17.6415 60.3512 17.4186 60.602 17.4186C60.8527 17.4186 61.1731 17.5788 61.5632 17.8992C61.9672 18.2057 62.1692 18.5749 62.1692 19.0067C62.1692 19.4386 61.2567 21.3123 59.4318 24.6279C57.6068 27.9435 56.6943 29.8311 56.6943 30.2909C56.6943 30.4023 56.75 30.458 56.8615 30.458C57.2376 30.458 58.0665 29.9287 59.3482 28.8699C60.6438 27.7972 62.0717 26.425 63.632 24.7533C65.3733 22.9005 66.7386 21.2078 67.7277 19.6754C67.8531 19.4804 67.9506 19.3341 68.0202 19.2366C68.1038 19.1252 68.2013 18.9858 68.3128 18.8187C68.4382 18.6376 68.5357 18.4983 68.6053 18.4007C68.6889 18.3032 68.7795 18.1918 68.877 18.0664C68.9884 17.9271 69.086 17.8226 69.1695 17.753C69.2531 17.6833 69.3437 17.6136 69.4412 17.544C69.5944 17.4047 69.7616 17.335 69.9427 17.335C70.1378 17.335 70.4233 17.3768 70.7995 17.4604C71.1895 17.544 71.4194 17.6345 71.4891 17.7321C71.5727 17.8296 71.6562 17.9201 71.7398 18.0037C71.8791 18.157 71.9488 18.3032 71.9488 18.4425C71.9488 18.5679 71.8931 18.7421 71.7816 18.965C71.6702 19.1739 71.0224 20.2745 69.8382 22.2666C66.3555 28.1455 63.9593 32.4363 62.6498 35.1389C64.7673 33.3557 67.7486 30.7158 71.5935 27.2191C71.7468 27.0937 71.9 27.031 72.0533 27.031C72.4851 27.031 72.7011 27.6927 72.7011 29.0162C72.7011 29.4063 72.6314 29.664 72.4921 29.7894C68.3267 32.9935 64.4051 36.5738 60.7273 40.5302Z" fill="white"/>
<path d="M77.0902 22.2039C80.3779 18.4704 83.178 16.6036 85.4906 16.6036C86.0618 16.6036 86.5284 16.7778 86.8906 17.1261C87.2668 17.4604 87.4549 17.8992 87.4549 18.4425C87.4549 18.9858 87.0648 19.8983 86.2846 21.18C85.5184 22.4477 84.808 23.5204 84.1532 24.3981C83.8049 24.8438 83.4079 25.0667 82.9621 25.0667C82.5302 25.0667 82.1889 24.9065 81.9382 24.5861C81.7013 24.2657 81.5829 23.8896 81.5829 23.4577C81.5829 22.4965 82.0984 21.4098 83.1293 20.1978L83.0875 20.1561C82.6278 20.1978 81.4854 21.1034 79.6604 22.8726C77.8494 24.6418 76.3031 26.23 75.0214 27.637C73.7537 29.0301 72.3745 30.7297 70.8839 32.7358C70.452 33.3348 70.0829 33.6343 69.7764 33.6343C69.4838 33.6343 69.0938 33.5438 68.6062 33.3627C68.1047 33.1676 67.8051 33.0283 67.7076 32.9447C67.5962 32.8611 67.5405 32.7218 67.5405 32.5268C67.5405 32.3318 67.5962 32.1089 67.7076 31.8581C67.8191 31.5934 68.028 31.2243 68.3345 30.7506C68.6271 30.2769 69.0729 29.5107 69.6719 28.452C70.2849 27.3932 71.2322 25.7912 72.5138 23.6458C73.7955 21.5004 74.5617 20.2048 74.8124 19.759C75.3418 18.8396 75.7737 18.1709 76.108 17.753C76.7349 16.9589 77.7937 16.5619 79.2843 16.5619C79.6187 16.5619 79.7858 16.7708 79.7858 17.1887C79.7858 17.8435 79.1798 19.0764 77.9678 20.8874L77.0902 22.2039Z" fill="white"/>
<path d="M97.9666 10.6481C97.9666 11.4422 97.5975 12.2432 96.8591 13.0512C96.1208 13.8453 95.3476 14.2423 94.5396 14.2423C93.7455 14.2423 93.3485 13.8244 93.3485 12.9885C93.3485 12.1527 93.6968 11.3586 94.3933 10.6063C95.1038 9.84013 95.884 9.45703 96.7337 9.45703C97.1099 9.45703 97.4094 9.56151 97.6323 9.77048C97.8552 9.97944 97.9666 10.272 97.9666 10.6481ZM94.5814 28.8908C94.5814 29.3087 94.5396 29.6083 94.456 29.7894C93.7734 31.1825 92.6868 32.3109 91.1962 33.1746C89.7055 34.0244 88.41 34.4493 87.3094 34.4493C86.2089 34.4493 85.2615 34.0801 84.4675 33.3418C83.6734 32.6034 83.2764 31.8511 83.2764 31.0849C83.2764 30.3187 83.6595 29.2043 84.4257 27.7415C85.1919 26.2787 85.9581 24.9274 86.7243 23.6876C87.4905 22.4477 87.8736 21.779 87.8736 21.6815C87.8736 21.5701 87.7273 21.3611 87.4348 21.0546C87.1562 20.7481 87.0169 20.5252 87.0169 20.3859C87.0169 20.2327 87.3024 19.8496 87.8736 19.2366C88.4587 18.6097 89.1622 17.9967 89.9842 17.3977C90.82 16.7847 91.4539 16.4783 91.8858 16.4783C92.3315 16.4783 92.7286 16.6733 93.0769 17.0634C93.4251 17.4534 93.5993 17.8087 93.5993 18.1291C93.5993 18.4495 91.9415 21.4656 88.6259 27.1773C88.5841 27.2609 88.4657 27.4489 88.2707 27.7415C88.0895 28.0201 87.9433 28.2569 87.8318 28.452C87.7343 28.6331 87.6159 28.856 87.4766 29.1207C87.198 29.6779 87.0587 30.1446 87.0587 30.5207C87.0587 30.9944 87.3791 31.2312 88.0199 31.2312C88.6607 31.2312 89.3224 31.0153 90.0051 30.5834C90.7016 30.1376 91.3006 29.65 91.8022 29.1207C93.1117 27.7136 93.857 27.0101 94.0381 27.0101C94.4003 27.0101 94.5814 27.637 94.5814 28.8908Z" fill="white"/>
<path d="M105.783 28.9535C106.507 28.4938 106.974 28.1803 107.183 28.0132C107.392 27.832 107.636 27.6231 107.914 27.3863C108.193 27.1494 108.423 27.031 108.604 27.031C108.882 27.031 109.022 27.3514 109.022 27.9923C109.022 28.6192 108.708 29.3018 108.081 30.0401C107.468 30.7645 106.702 31.3845 105.783 31.8999C104.863 32.4014 103.881 32.8403 102.836 33.2164C100.761 33.9826 98.9914 34.3657 97.5287 34.3657C96.0798 34.3657 94.7703 33.892 93.6001 32.9447C92.4299 31.9835 91.8448 30.7367 91.8448 29.2043C91.8448 27.6579 92.2279 26.1185 92.9941 24.5861C93.7603 23.0398 94.7425 21.6885 95.9405 20.5322C97.1525 19.362 98.5526 18.4147 100.141 17.6903C101.743 16.9659 103.324 16.6036 104.884 16.6036C105.637 16.6036 106.312 16.8196 106.911 17.2514C107.51 17.6833 107.81 18.2754 107.81 19.0276C107.81 19.7799 107.434 20.6854 106.681 21.7442C105.943 22.789 105.191 23.3114 104.425 23.3114C103.533 23.3114 103.087 22.8865 103.087 22.0367C103.087 21.8138 103.296 21.4168 103.714 20.8456C104.132 20.2745 104.341 19.8914 104.341 19.6963C104.341 19.4874 104.264 19.3829 104.111 19.3829C103.345 19.3829 102.523 19.6476 101.645 20.177C100.768 20.7063 99.9666 21.2636 99.2422 21.8487C98.5317 22.4338 97.856 23.0885 97.2152 23.8129C95.8221 25.3872 95.1256 27.024 95.1256 28.7236C95.1256 29.4063 95.3415 29.9983 95.7733 30.4998C96.2191 30.9874 96.9575 31.2312 97.9884 31.2312C99.0332 31.2312 100.078 31.1128 101.123 30.876C102.168 30.6252 103.024 30.3605 103.693 30.0819C104.376 29.7894 105.072 29.4132 105.783 28.9535Z" fill="white"/>
<path d="M34.7103 30.9805C32.1192 33.293 29.0265 34.4493 25.4323 34.4493C23.259 34.4493 21.7057 33.9896 20.7723 33.0701C20.243 32.5686 19.9783 31.684 19.9783 30.4163C19.9783 28.4659 21.4619 27.2052 24.4292 26.634C25.3626 26.4529 26.4841 26.3623 27.7936 26.3623C29.1031 26.3623 30.8932 26.6061 33.164 27.0937C34.376 25.7424 35.8178 23.7572 37.4896 21.1382C39.1752 18.5052 40.5056 16.4783 41.4808 15.0573C42.456 13.6363 43.5635 12.1875 44.8034 10.7108C46.0432 9.2202 47.3388 7.87586 48.6901 6.67779C51.4345 4.22593 54.1511 3 56.8398 3C58.0378 3 58.9015 3.30648 59.4309 3.91945C59.9603 4.51848 60.225 5.23593 60.225 6.07179C60.225 6.89372 59.8419 7.85496 59.0757 8.95551C58.3234 10.0561 57.4458 11.0312 56.4427 11.881C55.4536 12.7308 54.4715 13.4552 53.4963 14.0543C52.5351 14.6394 51.7758 14.9319 51.2186 14.9319C50.6613 14.9319 50.1807 14.6951 49.7767 14.2214C49.3727 13.7478 49.1707 13.295 49.1707 12.8632C49.1707 12.4174 49.2265 12.1109 49.3379 11.9437C49.4633 11.7626 49.5887 11.6721 49.714 11.6721C49.8394 11.6721 49.916 11.7487 49.9439 11.9019C50.3897 11.7626 51.1002 11.3308 52.0753 10.6063C53.0645 9.86799 53.963 9.10179 54.771 8.30772C55.579 7.51365 55.983 7.0191 55.983 6.82407C55.983 6.6151 55.8576 6.51062 55.6069 6.51062C55.37 6.51062 55.0427 6.5942 54.6247 6.76138C54.2068 6.92855 53.6496 7.27682 52.953 7.8062C52.2565 8.32165 51.5042 8.99034 50.6962 9.81227C48.7458 11.7626 46.5726 14.5279 44.1765 18.1082C43.6192 18.9162 42.8321 20.0934 41.8151 21.6397C39.7394 24.7742 38.2558 26.9196 37.3642 28.0758C44.5108 29.9565 49.6165 30.8969 52.6813 30.8969C54.1023 30.8969 55.0984 30.7158 55.6696 30.3536C55.8785 30.2282 56.0178 30.1655 56.0875 30.1655C56.1571 30.1655 56.192 30.2212 56.192 30.3327C56.192 30.4441 56.1293 30.6113 56.0039 30.8342C55.8785 31.0571 55.5651 31.5307 55.0636 32.2551C54.576 32.9796 54.2138 33.4114 53.9769 33.5507C53.2943 33.9547 52.1311 34.1567 50.4872 34.1567C48.8573 34.1567 47.297 34.0383 45.8064 33.8015C44.3297 33.5647 43.1386 33.3348 42.2331 33.1119C41.3276 32.8751 39.9832 32.4989 38.2 31.9835C36.4308 31.468 35.2676 31.1337 34.7103 30.9805ZM27.0831 29.7058C25.2581 29.7058 24.3456 29.9217 24.3456 30.3536C24.3456 30.5207 24.4989 30.667 24.8054 30.7924C25.1258 30.9178 25.5019 30.9805 25.9338 30.9805C27.2851 30.9805 28.5876 30.6252 29.8414 29.9147C28.7687 29.7754 27.8493 29.7058 27.0831 29.7058Z" stroke="black" stroke-width="4.27961" mask="url(#path-2-outside-1_75_2280)"/>
<path d="M60.7273 40.5302C60.6577 40.5998 60.4418 40.9481 60.0796 41.575C59.7313 42.2158 59.3551 42.8567 58.9511 43.4975C58.5471 44.1522 58.0456 44.7722 57.4466 45.3573C56.8615 45.9424 56.3669 46.2558 55.9629 46.2976C55.5729 46.3533 55.3221 46.3812 55.2107 46.3812C53.929 46.3812 53.2882 45.7334 53.2882 44.4378C53.2882 42.9193 54.0753 41.1431 55.6495 39.1092C56.2485 38.343 57.0008 37.5141 57.9063 36.6225C58.8118 35.7449 59.3064 35.2434 59.39 35.118C59.4736 35.0065 60.5184 33.0562 62.5245 29.2669C61.1871 30.7297 59.9472 31.9208 58.8049 32.8403C57.6625 33.7458 56.562 34.2542 55.5032 34.3657H55.3569C54.8136 34.3657 54.2773 34.1846 53.7479 33.8224C53.2185 33.4741 52.9538 32.8542 52.9538 31.9626C52.9538 30.6391 53.3091 29.3575 54.0196 28.1176C54.2703 27.6858 54.7022 26.9544 55.3151 25.9235C55.942 24.8926 56.5202 23.8965 57.0496 22.9353C57.5511 22.1691 58.0665 21.2775 58.5959 20.2605C59.1253 19.2436 59.5293 18.5192 59.8079 18.0873C60.0865 17.6415 60.3512 17.4186 60.602 17.4186C60.8527 17.4186 61.1731 17.5788 61.5632 17.8992C61.9672 18.2057 62.1692 18.5749 62.1692 19.0067C62.1692 19.4386 61.2567 21.3123 59.4318 24.6279C57.6068 27.9435 56.6943 29.8311 56.6943 30.2909C56.6943 30.4023 56.75 30.458 56.8615 30.458C57.2376 30.458 58.0665 29.9287 59.3482 28.8699C60.6438 27.7972 62.0717 26.425 63.632 24.7533C65.3733 22.9005 66.7386 21.2078 67.7277 19.6754C67.8531 19.4804 67.9506 19.3341 68.0202 19.2366C68.1038 19.1252 68.2013 18.9858 68.3128 18.8187C68.4382 18.6376 68.5357 18.4983 68.6053 18.4007C68.6889 18.3032 68.7795 18.1918 68.877 18.0664C68.9884 17.9271 69.086 17.8226 69.1695 17.753C69.2531 17.6833 69.3437 17.6136 69.4412 17.544C69.5944 17.4047 69.7616 17.335 69.9427 17.335C70.1378 17.335 70.4233 17.3768 70.7995 17.4604C71.1895 17.544 71.4194 17.6345 71.4891 17.7321C71.5727 17.8296 71.6562 17.9201 71.7398 18.0037C71.8791 18.157 71.9488 18.3032 71.9488 18.4425C71.9488 18.5679 71.8931 18.7421 71.7816 18.965C71.6702 19.1739 71.0224 20.2745 69.8382 22.2666C66.3555 28.1455 63.9593 32.4363 62.6498 35.1389C64.7673 33.3557 67.7486 30.7158 71.5935 27.2191C71.7468 27.0937 71.9 27.031 72.0533 27.031C72.4851 27.031 72.7011 27.6927 72.7011 29.0162C72.7011 29.4063 72.6314 29.664 72.4921 29.7894C68.3267 32.9935 64.4051 36.5738 60.7273 40.5302Z" stroke="black" stroke-width="4.27961" mask="url(#path-2-outside-1_75_2280)"/>
<path d="M77.0902 22.2039C80.3779 18.4704 83.178 16.6036 85.4906 16.6036C86.0618 16.6036 86.5284 16.7778 86.8906 17.1261C87.2668 17.4604 87.4549 17.8992 87.4549 18.4425C87.4549 18.9858 87.0648 19.8983 86.2846 21.18C85.5184 22.4477 84.808 23.5204 84.1532 24.3981C83.8049 24.8438 83.4079 25.0667 82.9621 25.0667C82.5302 25.0667 82.1889 24.9065 81.9382 24.5861C81.7013 24.2657 81.5829 23.8896 81.5829 23.4577C81.5829 22.4965 82.0984 21.4098 83.1293 20.1978L83.0875 20.1561C82.6278 20.1978 81.4854 21.1034 79.6604 22.8726C77.8494 24.6418 76.3031 26.23 75.0214 27.637C73.7537 29.0301 72.3745 30.7297 70.8839 32.7358C70.452 33.3348 70.0829 33.6343 69.7764 33.6343C69.4838 33.6343 69.0938 33.5438 68.6062 33.3627C68.1047 33.1676 67.8051 33.0283 67.7076 32.9447C67.5962 32.8611 67.5405 32.7218 67.5405 32.5268C67.5405 32.3318 67.5962 32.1089 67.7076 31.8581C67.8191 31.5934 68.028 31.2243 68.3345 30.7506C68.6271 30.2769 69.0729 29.5107 69.6719 28.452C70.2849 27.3932 71.2322 25.7912 72.5138 23.6458C73.7955 21.5004 74.5617 20.2048 74.8124 19.759C75.3418 18.8396 75.7737 18.1709 76.108 17.753C76.7349 16.9589 77.7937 16.5619 79.2843 16.5619C79.6187 16.5619 79.7858 16.7708 79.7858 17.1887C79.7858 17.8435 79.1798 19.0764 77.9678 20.8874L77.0902 22.2039Z" stroke="black" stroke-width="4.27961" mask="url(#path-2-outside-1_75_2280)"/>
<path d="M97.9666 10.6481C97.9666 11.4422 97.5975 12.2432 96.8591 13.0512C96.1208 13.8453 95.3476 14.2423 94.5396 14.2423C93.7455 14.2423 93.3485 13.8244 93.3485 12.9885C93.3485 12.1527 93.6968 11.3586 94.3933 10.6063C95.1038 9.84013 95.884 9.45703 96.7337 9.45703C97.1099 9.45703 97.4094 9.56151 97.6323 9.77048C97.8552 9.97944 97.9666 10.272 97.9666 10.6481ZM94.5814 28.8908C94.5814 29.3087 94.5396 29.6083 94.456 29.7894C93.7734 31.1825 92.6868 32.3109 91.1962 33.1746C89.7055 34.0244 88.41 34.4493 87.3094 34.4493C86.2089 34.4493 85.2615 34.0801 84.4675 33.3418C83.6734 32.6034 83.2764 31.8511 83.2764 31.0849C83.2764 30.3187 83.6595 29.2043 84.4257 27.7415C85.1919 26.2787 85.9581 24.9274 86.7243 23.6876C87.4905 22.4477 87.8736 21.779 87.8736 21.6815C87.8736 21.5701 87.7273 21.3611 87.4348 21.0546C87.1562 20.7481 87.0169 20.5252 87.0169 20.3859C87.0169 20.2327 87.3024 19.8496 87.8736 19.2366C88.4587 18.6097 89.1622 17.9967 89.9842 17.3977C90.82 16.7847 91.4539 16.4783 91.8858 16.4783C92.3315 16.4783 92.7286 16.6733 93.0769 17.0634C93.4251 17.4534 93.5993 17.8087 93.5993 18.1291C93.5993 18.4495 91.9415 21.4656 88.6259 27.1773C88.5841 27.2609 88.4657 27.4489 88.2707 27.7415C88.0895 28.0201 87.9433 28.2569 87.8318 28.452C87.7343 28.6331 87.6159 28.856 87.4766 29.1207C87.198 29.6779 87.0587 30.1446 87.0587 30.5207C87.0587 30.9944 87.3791 31.2312 88.0199 31.2312C88.6607 31.2312 89.3224 31.0153 90.0051 30.5834C90.7016 30.1376 91.3006 29.65 91.8022 29.1207C93.1117 27.7136 93.857 27.0101 94.0381 27.0101C94.4003 27.0101 94.5814 27.637 94.5814 28.8908Z" stroke="black" stroke-width="4.27961" mask="url(#path-2-outside-1_75_2280)"/>
<path d="M105.783 28.9535C106.507 28.4938 106.974 28.1803 107.183 28.0132C107.392 27.832 107.636 27.6231 107.914 27.3863C108.193 27.1494 108.423 27.031 108.604 27.031C108.882 27.031 109.022 27.3514 109.022 27.9923C109.022 28.6192 108.708 29.3018 108.081 30.0401C107.468 30.7645 106.702 31.3845 105.783 31.8999C104.863 32.4014 103.881 32.8403 102.836 33.2164C100.761 33.9826 98.9914 34.3657 97.5287 34.3657C96.0798 34.3657 94.7703 33.892 93.6001 32.9447C92.4299 31.9835 91.8448 30.7367 91.8448 29.2043C91.8448 27.6579 92.2279 26.1185 92.9941 24.5861C93.7603 23.0398 94.7425 21.6885 95.9405 20.5322C97.1525 19.362 98.5526 18.4147 100.141 17.6903C101.743 16.9659 103.324 16.6036 104.884 16.6036C105.637 16.6036 106.312 16.8196 106.911 17.2514C107.51 17.6833 107.81 18.2754 107.81 19.0276C107.81 19.7799 107.434 20.6854 106.681 21.7442C105.943 22.789 105.191 23.3114 104.425 23.3114C103.533 23.3114 103.087 22.8865 103.087 22.0367C103.087 21.8138 103.296 21.4168 103.714 20.8456C104.132 20.2745 104.341 19.8914 104.341 19.6963C104.341 19.4874 104.264 19.3829 104.111 19.3829C103.345 19.3829 102.523 19.6476 101.645 20.177C100.768 20.7063 99.9666 21.2636 99.2422 21.8487C98.5317 22.4338 97.856 23.0885 97.2152 23.8129C95.8221 25.3872 95.1256 27.024 95.1256 28.7236C95.1256 29.4063 95.3415 29.9983 95.7733 30.4998C96.2191 30.9874 96.9575 31.2312 97.9884 31.2312C99.0332 31.2312 100.078 31.1128 101.123 30.876C102.168 30.6252 103.024 30.3605 103.693 30.0819C104.376 29.7894 105.072 29.4132 105.783 28.9535Z" stroke="black" stroke-width="4.27961" mask="url(#path-2-outside-1_75_2280)"/>
</svg>
